<?xml version="1.0" encoding="UTF-8" standalone="no"?>
<!DOCTYPE svg PUBLIC "-//W3C//DTD SVG 1.1//EN"
 "http://www.w3.org/Graphics/SVG/1.1/DTD/svg11.dtd">
<!-- Generated by graphviz version 2.43.0 (0)
 -->
<!-- Title: G Pages: 1 -->
<svg width="1134pt" height="356pt"
 viewBox="0.00 0.00 1134.22 356.23" xmlns="http://www.w3.org/2000/svg" xmlns:xlink="http://www.w3.org/1999/xlink">
<g id="graph0" class="graph" transform="scale(1 1) rotate(0) translate(4 352.23)">
<title>G</title>
<polygon fill="white" stroke="transparent" points="-4,4 -4,-352.23 1130.22,-352.23 1130.22,4 -4,4"/>
<text text-anchor="middle" x="92.77" y="-333.03" font-family="Times,serif" font-size="14.00">Initiator session establishment</text>
<text text-anchor="start" x="8" y="-319.03" font-family="Times,serif" font-size="14.00">Version 0.1</text>
<text text-anchor="start" x="8" y="-305.03" font-family="Times,serif" font-size="14.00">2019&#45;10&#45;03</text>
<!-- SESSEST -->
<g id="node1" class="node">
<title>SESSEST</title>
<ellipse fill="none" stroke="black" cx="62.31" cy="-235.92" rx="58.14" ry="58.14"/>
<ellipse fill="none" stroke="black" cx="62.31" cy="-235.92" rx="62.12" ry="62.12"/>
<text text-anchor="middle" x="62.31" y="-238.72" font-family="Times,serif" font-size="14.00">new current</text>
<text text-anchor="middle" x="62.31" y="-224.72" font-family="Times,serif" font-size="14.00">session</text>
</g>
<!-- NOTENT -->
<g id="node6" class="node">
<title>NOTENT</title>
<ellipse fill="none" stroke="black" cx="207.1" cy="-114.92" rx="45.44" ry="45.44"/>
<text text-anchor="middle" x="207.1" y="-110.72" font-family="Times,serif" font-size="14.00">NOTENT</text>
</g>
<!-- SESSEST&#45;&gt;NOTENT -->
<g id="edge12" class="edge">
<title>SESSEST&#45;&gt;NOTENT</title>
<path fill="none" stroke="black" d="M110.46,-195.96C127.63,-181.41 146.93,-165.06 163.67,-150.87"/>
<polygon fill="black" stroke="black" points="166.29,-153.24 171.66,-144.1 161.77,-147.9 166.29,-153.24"/>
</g>
<!-- qi -->
<g id="node2" class="node">
<title>qi</title>
<ellipse fill="black" stroke="black" cx="62.31" cy="-114.92" rx="1.8" ry="1.8"/>
</g>
<!-- qi&#45;&gt;NOTENT -->
<g id="edge1" class="edge">
<title>qi&#45;&gt;NOTENT</title>
<path fill="none" stroke="black" d="M64.22,-114.92C71,-114.92 114.24,-114.92 151.23,-114.92"/>
<polygon fill="black" stroke="black" points="151.46,-118.42 161.46,-114.92 151.46,-111.42 151.46,-118.42"/>
</g>
<!-- INITREQ -->
<g id="node3" class="node">
<title>INITREQ</title>
<ellipse fill="none" stroke="black" cx="481.31" cy="-151.92" rx="54.13" ry="54.13"/>
<text text-anchor="middle" x="481.31" y="-147.72" font-family="Times,serif" font-size="14.00">1. INITREQ</text>
</g>
<!-- INITREQ&#45;&gt;INITREQ -->
<g id="edge6" class="edge">
<title>INITREQ&#45;&gt;INITREQ</title>
<path fill="none" stroke="black" d="M453.22,-198.52C453.78,-212.92 463.15,-224.24 481.31,-224.24 494.94,-224.24 503.61,-217.87 507.34,-208.61"/>
<polygon fill="black" stroke="black" points="510.83,-209.02 509.41,-198.52 503.97,-207.61 510.83,-209.02"/>
<text text-anchor="middle" x="481.31" y="-227.04" font-family="Times,serif" font-size="14.00">Rekey&#45;Timeout</text>
</g>
<!-- INITSENT -->
<g id="node4" class="node">
<title>INITSENT</title>
<ellipse fill="none" stroke="black" cx="776.79" cy="-110.92" rx="58.98" ry="58.98"/>
<text text-anchor="middle" x="776.79" y="-106.72" font-family="Times,serif" font-size="14.00">2. INITSENT</text>
</g>
<!-- INITREQ&#45;&gt;INITSENT -->
<g id="edge3" class="edge">
<title>INITREQ&#45;&gt;INITSENT</title>
<path fill="none" stroke="black" d="M530.09,-127.67C543.34,-122.07 557.96,-116.88 572.03,-113.92 616.61,-104.52 667.91,-103.82 707.88,-105.45"/>
<polygon fill="black" stroke="black" points="707.9,-108.95 718.05,-105.92 708.22,-101.96 707.9,-108.95"/>
<text text-anchor="middle" x="636.04" y="-116.72" font-family="Times,serif" font-size="14.00">WGINIT from enclave</text>
</g>
<!-- INITREQ&#45;&gt;NOTENT -->
<g id="edge7" class="edge">
<title>INITREQ&#45;&gt;NOTENT</title>
<path fill="none" stroke="black" d="M433.15,-126.47C419.78,-120.49 404.95,-114.97 390.6,-111.92 348.25,-102.91 299.11,-104.37 262.49,-107.69"/>
<polygon fill="black" stroke="black" points="262.12,-104.21 252.51,-108.67 262.81,-111.18 262.12,-104.21"/>
<text text-anchor="middle" x="330.58" y="-114.72" font-family="Times,serif" font-size="14.00">Rekey&#45;Attempt&#45;Time</text>
</g>
<!-- INITSENT&#45;&gt;INITREQ -->
<g id="edge8" class="edge">
<title>INITSENT&#45;&gt;INITREQ</title>
<path fill="none" stroke="black" d="M719.26,-124.33C712.81,-125.65 706.3,-126.88 700.05,-127.92 648.48,-136.52 589.5,-142.81 545.95,-146.78"/>
<polygon fill="black" stroke="black" points="545.43,-143.31 535.78,-147.69 546.06,-150.29 545.43,-143.31"/>
<text text-anchor="middle" x="636.04" y="-146.72" font-family="Times,serif" font-size="14.00">Rekey&#45;Timeout</text>
</g>
<!-- RESPRECVD -->
<g id="node5" class="node">
<title>RESPRECVD</title>
<ellipse fill="none" stroke="black" cx="1056.16" cy="-181.92" rx="70.12" ry="70.12"/>
<text text-anchor="middle" x="1056.16" y="-177.72" font-family="Times,serif" font-size="14.00">3. RESPRECVD</text>
</g>
<!-- INITSENT&#45;&gt;RESPRECVD -->
<g id="edge4" class="edge">
<title>INITSENT&#45;&gt;RESPRECVD</title>
<path fill="none" stroke="black" d="M833.92,-125.29C875.43,-135.91 932.47,-150.51 978.23,-162.23"/>
<polygon fill="black" stroke="black" points="977.55,-165.67 988.11,-164.76 979.29,-158.89 977.55,-165.67"/>
<text text-anchor="middle" x="910.81" y="-162.72" font-family="Times,serif" font-size="14.00">WGRESP from peer</text>
</g>
<!-- INITSENT&#45;&gt;NOTENT -->
<g id="edge9" class="edge">
<title>INITSENT&#45;&gt;NOTENT</title>
<path fill="none" stroke="black" d="M719.12,-99.14C674.5,-90.49 610.6,-79.48 554.03,-74.92 489.6,-69.72 472.93,-68.69 408.6,-74.92 358.12,-79.81 301.52,-91.7 261.37,-101.26"/>
<polygon fill="black" stroke="black" points="260.43,-97.88 251.53,-103.63 262.07,-104.69 260.43,-97.88"/>
<text text-anchor="middle" x="481.31" y="-77.72" font-family="Times,serif" font-size="14.00">Rekey&#45;Attempt&#45;Time</text>
</g>
<!-- RESPRECVD&#45;&gt;SESSEST -->
<g id="edge5" class="edge">
<title>RESPRECVD&#45;&gt;SESSEST</title>
<path fill="none" stroke="black" d="M994.02,-214.74C939.05,-241.17 855.29,-273.92 777.79,-273.92 206.1,-273.92 206.1,-273.92 206.1,-273.92 180.96,-273.92 154.14,-268.35 130.62,-261.48"/>
<polygon fill="black" stroke="black" points="131.34,-258.04 120.75,-258.46 129.29,-264.73 131.34,-258.04"/>
<text text-anchor="middle" x="481.31" y="-276.72" font-family="Times,serif" font-size="14.00">SESSKEYS from enclave</text>
</g>
<!-- RESPRECVD&#45;&gt;INITREQ -->
<g id="edge10" class="edge">
<title>RESPRECVD&#45;&gt;INITREQ</title>
<path fill="none" stroke="black" d="M986.01,-183.43C917.81,-184.41 810.64,-184.62 718.05,-178.92 659.44,-175.31 593.02,-167.35 545.65,-161"/>
<polygon fill="black" stroke="black" points="545.92,-157.51 535.54,-159.63 544.98,-164.45 545.92,-157.51"/>
<text text-anchor="middle" x="776.79" y="-185.72" font-family="Times,serif" font-size="14.00">Rekey&#45;Timeout</text>
</g>
<!-- RESPRECVD&#45;&gt;NOTENT -->
<g id="edge11" class="edge">
<title>RESPRECVD&#45;&gt;NOTENT</title>
<path fill="none" stroke="black" d="M1002.54,-136.46C960.49,-103.31 898.37,-61.14 835.53,-42.92 594,27.09 508.88,6.37 270.57,-73.92 264.44,-75.99 258.32,-78.8 252.45,-82"/>
<polygon fill="black" stroke="black" points="250.31,-79.2 243.46,-87.28 253.86,-85.23 250.31,-79.2"/>
<text text-anchor="middle" x="636.04" y="-13.72" font-family="Times,serif" font-size="14.00">Rekey&#45;Attempt&#45;Time</text>
</g>
<!-- NOTENT&#45;&gt;INITREQ -->
<g id="edge2" class="edge">
<title>NOTENT&#45;&gt;INITREQ</title>
<path fill="none" stroke="black" d="M251.3,-126.07C257.73,-127.5 264.3,-128.84 270.57,-129.92 319.41,-138.31 375.23,-143.97 417,-147.45"/>
<polygon fill="black" stroke="black" points="416.78,-150.95 427.04,-148.27 417.35,-143.97 416.78,-150.95"/>
<text text-anchor="middle" x="330.58" y="-148.72" font-family="Times,serif" font-size="14.00">read(2) from tun</text>
</g>
</g>
</svg>
