<?xml version="1.0" encoding="UTF-8" standalone="no"?>
<!DOCTYPE svg PUBLIC "-//W3C//DTD SVG 1.1//EN"
 "http://www.w3.org/Graphics/SVG/1.1/DTD/svg11.dtd">
<!-- Generated by graphviz version 2.43.0 (0)
 -->
<!-- Title: G Pages: 1 -->
<svg width="870pt" height="268pt"
 viewBox="0.00 0.00 870.22 267.53" xmlns="http://www.w3.org/2000/svg" xmlns:xlink="http://www.w3.org/1999/xlink">
<g id="graph0" class="graph" transform="scale(1 1) rotate(0) translate(4 263.53)">
<title>G</title>
<polygon fill="white" stroke="transparent" points="-4,4 -4,-263.53 866.22,-263.53 866.22,4 -4,4"/>
<text text-anchor="middle" x="100.16" y="-244.33" font-family="Times,serif" font-size="14.00">Responder session establishment</text>
<text text-anchor="start" x="8" y="-230.33" font-family="Times,serif" font-size="14.00">Version 0.1</text>
<text text-anchor="start" x="8" y="-216.33" font-family="Times,serif" font-size="14.00">2019&#45;10&#45;03</text>
<!-- DATARECVD -->
<g id="node1" class="node">
<title>DATARECVD</title>
<ellipse fill="none" stroke="black" cx="62.31" cy="-147.22" rx="58.14" ry="58.14"/>
<ellipse fill="none" stroke="black" cx="62.31" cy="-147.22" rx="62.12" ry="62.12"/>
<text text-anchor="middle" x="62.31" y="-150.02" font-family="Times,serif" font-size="14.00">new current</text>
<text text-anchor="middle" x="62.31" y="-136.02" font-family="Times,serif" font-size="14.00">session</text>
</g>
<!-- NONEXT -->
<g id="node5" class="node">
<title>NONEXT</title>
<ellipse fill="none" stroke="black" cx="208.08" cy="-64.22" rx="46.41" ry="46.41"/>
<text text-anchor="middle" x="208.08" y="-60.02" font-family="Times,serif" font-size="14.00">NONEXT</text>
</g>
<!-- DATARECVD&#45;&gt;NONEXT -->
<g id="edge6" class="edge">
<title>DATARECVD&#45;&gt;NONEXT</title>
<path fill="none" stroke="black" d="M116.85,-116.31C130.47,-108.45 145.03,-100.04 158.4,-92.32"/>
<polygon fill="black" stroke="black" points="160.52,-95.14 167.43,-87.11 157.02,-89.08 160.52,-95.14"/>
</g>
<!-- qi -->
<g id="node2" class="node">
<title>qi</title>
<ellipse fill="black" stroke="black" cx="62.31" cy="-64.22" rx="1.8" ry="1.8"/>
</g>
<!-- qi&#45;&gt;NONEXT -->
<g id="edge1" class="edge">
<title>qi&#45;&gt;NONEXT</title>
<path fill="none" stroke="black" d="M64.23,-64.22C71.01,-64.22 114.04,-64.22 151.12,-64.22"/>
<polygon fill="black" stroke="black" points="151.38,-67.72 161.38,-64.22 151.38,-60.72 151.38,-67.72"/>
</g>
<!-- GOTKEYS -->
<g id="node3" class="node">
<title>GOTKEYS</title>
<ellipse fill="none" stroke="black" cx="496.18" cy="-60.22" rx="60.44" ry="60.44"/>
<text text-anchor="middle" x="496.18" y="-56.02" font-family="Times,serif" font-size="14.00">1. GOTKEYS</text>
</g>
<!-- RESPSENT -->
<g id="node4" class="node">
<title>RESPSENT</title>
<ellipse fill="none" stroke="black" cx="800.03" cy="-111.22" rx="62.39" ry="62.39"/>
<text text-anchor="middle" x="800.03" y="-107.02" font-family="Times,serif" font-size="14.00">2. RESPSENT</text>
</g>
<!-- GOTKEYS&#45;&gt;RESPSENT -->
<g id="edge3" class="edge">
<title>GOTKEYS&#45;&gt;RESPSENT</title>
<path fill="none" stroke="black" d="M552.32,-82.9C559.66,-85.33 567.15,-87.53 574.4,-89.22 624.86,-100.95 683.1,-106.43 727.64,-108.99"/>
<polygon fill="black" stroke="black" points="727.61,-112.49 737.79,-109.54 727.99,-105.5 727.61,-112.49"/>
<text text-anchor="middle" x="647.12" y="-111.02" font-family="Times,serif" font-size="14.00">WGRESP from enclave</text>
</g>
<!-- RESPSENT&#45;&gt;DATARECVD -->
<g id="edge4" class="edge">
<title>RESPSENT&#45;&gt;DATARECVD</title>
<path fill="none" stroke="black" d="M739.07,-123.59C732.59,-124.62 726.09,-125.53 719.83,-126.22 508.08,-149.52 255.78,-149.99 134.86,-148.55"/>
<polygon fill="black" stroke="black" points="134.67,-145.05 124.63,-148.42 134.59,-152.05 134.67,-145.05"/>
<text text-anchor="middle" x="345.25" y="-151.02" font-family="Times,serif" font-size="14.00">WGDATA from peer</text>
</g>
<!-- RESPSENT&#45;&gt;GOTKEYS -->
<g id="edge5" class="edge">
<title>RESPSENT&#45;&gt;GOTKEYS</title>
<path fill="none" stroke="black" d="M751.12,-72.02C741.3,-65.93 730.64,-60.55 719.83,-57.22 669.97,-41.84 610.79,-43.51 565.98,-48.53"/>
<polygon fill="black" stroke="black" points="565.29,-45.09 555.78,-49.76 566.12,-52.04 565.29,-45.09"/>
<text text-anchor="middle" x="647.12" y="-74.02" font-family="Times,serif" font-size="14.00">valid WGINIT from peer</text>
<text text-anchor="middle" x="647.12" y="-60.02" font-family="Times,serif" font-size="14.00">SESSKEYS from enclave</text>
</g>
<!-- NONEXT&#45;&gt;GOTKEYS -->
<g id="edge2" class="edge">
<title>NONEXT&#45;&gt;GOTKEYS</title>
<path fill="none" stroke="black" d="M254.73,-63.58C300.82,-62.94 372.61,-61.93 425.76,-61.19"/>
<polygon fill="black" stroke="black" points="425.84,-64.69 435.79,-61.05 425.74,-57.69 425.84,-64.69"/>
<text text-anchor="middle" x="345.25" y="-81.02" font-family="Times,serif" font-size="14.00">valid WGINIT from peer</text>
<text text-anchor="middle" x="345.25" y="-67.02" font-family="Times,serif" font-size="14.00">SESSKEYS from enclave</text>
</g>
</g>
</svg>
